<svg width="172" height="172" viewBox="0 0 172 172" fill="none" xmlns="http://www.w3.org/2000/svg">
<path d="M158.906 0.000649689H12.6562C9.33794 -0.0331211 6.14175 1.25087 3.76902 3.57088C1.39628 5.89089 0.0407971 9.05742 0 12.3756V159.216C0.0481751 162.53 1.4069 165.689 3.77883 168.003C6.15077 170.317 9.34275 171.597 12.6562 171.563H158.906C162.225 171.589 165.419 170.301 167.79 167.98C170.162 165.658 171.518 162.492 171.562 159.174V12.3335C171.503 9.02496 170.141 5.87353 167.771 3.56417C165.401 1.25481 162.215 -0.0258183 158.906 0.000649689Z" fill="#0076B2"/>
<path d="M25.3961 64.3086H50.8633V146.251H25.3961V64.3086ZM38.1367 23.5273C41.0577 23.5273 43.913 24.3937 46.3415 26.0168C48.77 27.6399 50.6626 29.9468 51.7797 32.6457C52.8969 35.3445 53.1885 38.3141 52.6176 41.1788C52.0467 44.0434 50.639 46.6744 48.5726 48.7388C46.5062 50.8033 43.8739 52.2084 41.0087 52.7766C38.1435 53.3447 35.1742 53.0503 32.4764 51.9306C29.7786 50.8109 27.4735 48.9161 25.8527 46.4861C24.2319 44.056 23.3683 41.1999 23.3711 38.2789C23.3748 34.3653 24.9321 30.6132 27.7008 27.8471C30.4695 25.0811 34.2231 23.5273 38.1367 23.5273ZM66.8383 64.3086H91.2508V75.5586H91.5883C94.9914 69.118 103.288 62.3258 115.677 62.3258C141.468 62.2695 146.249 79.243 146.249 101.251V146.251H120.782V106.384C120.782 96.8914 120.613 84.6711 107.549 84.6711C94.4852 84.6711 92.2633 95.0211 92.2633 105.765V146.251H66.8383V64.3086Z" fill="white"/>
</svg>
