<svg width="180" height="180" viewBox="0 0 180 180" fill="none" xmlns="http://www.w3.org/2000/svg">
<path d="M137.812 0H42.1875C18.888 0 0 18.888 0 42.1875V137.812C0 161.112 18.888 180 42.1875 180H137.812C161.112 180 180 161.112 180 137.812V42.1875C180 18.888 161.112 0 137.812 0Z" fill="url(#paint0_radial_43_22)"/>
<path d="M137.812 0H42.1875C18.888 0 0 18.888 0 42.1875V137.812C0 161.112 18.888 180 42.1875 180H137.812C161.112 180 180 161.112 180 137.812V42.1875C180 18.888 161.112 0 137.812 0Z" fill="url(#paint1_radial_43_22)"/>
<path d="M90.0063 19.6875C70.9109 19.6875 68.5139 19.7712 61.0144 20.1122C53.5289 20.4553 48.4193 21.6401 43.9488 23.3789C39.3237 25.1747 35.4009 27.5773 31.493 31.4866C27.5815 35.3953 25.1789 39.318 23.3775 43.9411C21.6338 48.413 20.4476 53.5247 20.1108 61.0066C19.7754 68.5069 19.6875 70.9045 19.6875 90.0007C19.6875 109.097 19.7719 111.486 20.1122 118.986C20.4567 126.471 21.6415 131.581 23.3789 136.051C25.1761 140.676 27.5787 144.599 31.488 148.507C35.3953 152.419 39.318 154.827 43.9397 156.622C48.4137 158.361 53.524 159.546 61.008 159.889C68.5083 160.23 70.9031 160.314 89.9979 160.314C109.095 160.314 111.485 160.23 118.984 159.889C126.47 159.546 131.585 158.361 136.059 156.622C140.682 154.827 144.599 152.419 148.506 148.507C152.417 144.599 154.819 140.676 156.621 136.053C158.349 131.581 159.536 126.47 159.888 118.987C160.225 111.487 160.312 109.097 160.312 90.0007C160.312 70.9045 160.225 68.5083 159.888 61.008C159.536 53.5226 158.349 48.4137 156.621 43.9432C154.819 39.318 152.417 35.3953 148.506 31.4866C144.595 27.5759 140.683 25.1733 136.055 23.3796C131.572 21.6401 126.46 20.4546 118.974 20.1122C111.474 19.7712 109.086 19.6875 89.9845 19.6875H90.0063ZM83.6986 32.3585C85.571 32.3557 87.66 32.3585 90.0063 32.3585C108.78 32.3585 111.005 32.426 118.419 32.7628C125.274 33.0764 128.995 34.2218 131.474 35.1844C134.755 36.4584 137.095 37.9821 139.554 40.4437C142.015 42.9047 143.538 45.2482 144.816 48.5297C145.778 51.0047 146.925 54.7256 147.237 61.5811C147.574 68.9934 147.647 71.2195 147.647 89.9845C147.647 108.75 147.574 110.976 147.237 118.388C146.924 125.243 145.778 128.964 144.816 131.44C143.542 134.722 142.015 137.058 139.554 139.518C137.093 141.979 134.757 143.501 131.474 144.776C128.998 145.743 125.274 146.886 118.419 147.199C111.007 147.536 108.78 147.609 90.0063 147.609C71.2315 147.609 69.0061 147.536 61.5945 147.199C54.739 146.883 51.018 145.737 48.5374 144.775C45.2566 143.5 42.9124 141.977 40.4515 139.516C37.9905 137.055 36.4676 134.717 35.19 131.434C34.2274 128.959 33.0806 125.238 32.7684 118.382C32.4316 110.97 32.3641 108.744 32.3641 89.967C32.3641 71.19 32.4316 68.9759 32.7684 61.5635C33.082 54.708 34.2274 50.9871 35.19 48.5086C36.4648 45.2271 37.9905 42.8836 40.4522 40.4227C42.9138 37.9617 45.2566 36.438 48.5381 35.1612C51.0166 34.1944 54.739 33.0518 61.5945 32.7368C68.0808 32.4436 70.5945 32.3557 83.6986 32.3409V32.3585ZM127.539 44.0332C122.881 44.0332 119.102 47.809 119.102 52.4679C119.102 57.1261 122.881 60.9054 127.539 60.9054C132.197 60.9054 135.977 57.1261 135.977 52.4679C135.977 47.8097 132.197 44.0304 127.539 44.0304V44.0332ZM90.0063 53.8917C70.0657 53.8917 53.898 70.0594 53.898 90.0007C53.898 109.942 70.0657 126.102 90.0063 126.102C109.948 126.102 126.11 109.942 126.11 90.0007C126.11 70.0601 109.946 53.8917 90.0049 53.8917H90.0063ZM90.0063 66.5627C102.95 66.5627 113.444 77.0555 113.444 90.0007C113.444 102.945 102.95 113.439 90.0063 113.439C77.0625 113.439 66.5691 102.945 66.5691 90.0007C66.5691 77.0555 77.0618 66.5627 90.0063 66.5627Z" fill="white"/>
<defs>
<radialGradient id="paint0_radial_43_22" cx="0" cy="0" r="1" gradientUnits="userSpaceOnUse" gradientTransform="translate(47.8125 193.864) rotate(-90) scale(178.393 165.92)">
<stop stop-color="#FFDD55"/>
<stop offset="0.1" stop-color="#FFDD55"/>
<stop offset="0.5" stop-color="#FF543E"/>
<stop offset="1" stop-color="#C837AB"/>
</radialGradient>
<radialGradient id="paint1_radial_43_22" cx="0" cy="0" r="1" gradientUnits="userSpaceOnUse" gradientTransform="translate(-30.1506 12.9667) rotate(78.68) scale(79.7428 328.703)">
<stop stop-color="#3771C8"/>
<stop offset="0.128" stop-color="#3771C8"/>
<stop offset="1" stop-color="#6600FF" stop-opacity="0"/>
</radialGradient>
</defs>
</svg>
