<svg width="10" height="10" viewBox="0 0 10 10" fill="none" xmlns="http://www.w3.org/2000/svg">
<path d="M6.965 5.5H2.987C3.047 6.826 3.34 7.977 3.749 8.795C4.239 9.775 4.73 10 4.975 10C5.22 10 5.712 9.775 6.202 8.795C6.611 7.977 6.905 6.825 6.965 5.5ZM2.986 4.5C3.046 3.174 3.339 2.023 3.748 1.205C4.239 0.225 4.73 0 4.975 0C5.22 0 5.712 0.225 6.202 1.205C6.611 2.023 6.904 3.175 6.964 4.5H2.986ZM1.985 4.5H0C0.0903142 3.60062 0.422745 2.74254 0.961926 2.01706C1.50111 1.29158 2.22687 0.72583 3.062 0.38C2.458 1.38 2.053 2.845 1.985 4.5ZM1.986 5.5H0C0.0903142 6.39938 0.422745 7.25746 0.961926 7.98294C1.50111 8.70842 2.22687 9.27417 3.062 9.62C2.458 8.62 2.054 7.155 1.986 5.5ZM7.966 5.5H9.951C9.86078 6.39927 9.52849 7.25727 8.9895 7.98274C8.4505 8.70821 7.72494 9.27403 6.89 9.62C7.493 8.62 7.897 7.155 7.965 5.5M9.95 4.5H7.965C7.897 2.845 7.493 1.38 6.89 0.38C7.72494 0.725973 8.4505 1.29179 8.9895 2.01726C9.52849 2.74273 9.85978 3.60073 9.95 4.5Z" fill="black"/>
</svg>
